<?xml version="1.0" encoding="utf-8"?>
<!-- Generator: Adobe Illustrator 18.0.0, SVG Export Plug-In . SVG Version: 6.00 Build 0)  -->
<!DOCTYPE svg PUBLIC "-//W3C//DTD SVG 1.1//EN" "http://www.w3.org/Graphics/SVG/1.1/DTD/svg11.dtd">
<svg version="1.1" id="Layer_1" xmlns="http://www.w3.org/2000/svg" xmlns:xlink="http://www.w3.org/1999/xlink" x="0px" y="0px"
	 viewBox="0 0 199 79.3" enable-background="new 0 0 199 79.3" xml:space="preserve">
<path d="M17.9,8.4v51C17.9,72.5,13.3,79,3.8,79c-0.9,0-1.7,0-2.6-0.1v-7.1h0.4c5.8,0,8.8-4.7,8.8-14.3V8.4H17.9z"/>
<polygon points="67.6,8.4 67.6,15.4 43.7,15.4 43.7,32.4 67.1,32.4 67.1,39.5 43.7,39.5 43.7,58.1 68.3,58.1 68.3,65.4 36.2,65.4 
	36.2,8.4 "/>
<path fill-rule="evenodd" clip-rule="evenodd" d="M120.8,16.3c-2.7-2.2-6.6-3.4-11.6-3.4c-6.3,0-11.2,2-14.7,6.1
	c-3.6,4.2-5.3,9.9-5.3,17.2c0,7.4,1.8,13.2,5.4,17.4c3.5,4.2,8.4,6.3,14.8,6.3c5,0,9-1.2,11.9-3.8l3.9,6.8
	c-4.2,2.5-9.5,3.8-16.1,3.8c-8.7,0-15.6-2.8-20.7-8.4c-5.1-5.5-7.6-13-7.6-22.4c0-9.1,2.6-16.4,7.8-21.7c5.3-5.3,12.2-8,21.2-8
	c5.4,0,10.1,1,14,3L120.8,16.3z"/>
<path fill="#ED1D24" d="M146,8.2v23.8h28v7.5h-0.1l0,0H146v26h-7.8c0-18.9,0-38.4,0-57.2H146z"/>
<path d="M178.4,65.3v-11h-27.9v-7.4h0.1l0,0h27.8V8.1h7.8c0,18.9,0,38.4,0,57.2H178.4z"/>
<g>
	<path d="M193.7,1.2c2.4,0,4.5,1.9,4.5,4.5c0,2.6-2.1,4.5-4.5,4.5c-2.5,0-4.5-1.9-4.5-4.5C189.2,3.1,191.3,1.2,193.7,1.2z
		 M193.7,9.5c2.1,0,3.7-1.7,3.7-3.9c0-2.1-1.6-3.8-3.7-3.8c-2.1,0-3.7,1.7-3.7,3.8C190,7.8,191.6,9.5,193.7,9.5z M192,3.1h2
		c1.2,0,1.8,0.5,1.8,1.5c0,0.9-0.6,1.3-1.4,1.4l1.5,2.3h-0.9L193.7,6h-0.9v2.3H192V3.1z M192.8,5.4h0.9c0.7,0,1.4,0,1.4-0.9
		c0-0.7-0.6-0.8-1.2-0.8h-1.1V5.4z"/>
</g>
</svg>
