<?xml version="1.0" encoding="utf-8"?>
<!-- Generator: Adobe Illustrator 16.0.1, SVG Export Plug-In . SVG Version: 6.00 Build 0)  -->
<!DOCTYPE svg PUBLIC "-//W3C//DTD SVG 1.1//EN" "http://www.w3.org/Graphics/SVG/1.1/DTD/svg11.dtd">
<svg version="1.1" id="Vrstva_1" xmlns="http://www.w3.org/2000/svg" xmlns:xlink="http://www.w3.org/1999/xlink" x="0px" y="0px"
	 width="660px" height="222px" viewBox="0 0 660 222" enable-background="new 0 0 660 222" xml:space="preserve">
<path fill="#62246C" d="M426.259,88.426c0.735-4.495,2.433-8.093,5.096-10.778s6.12-4.062,10.363-4.133
	c4.071,0.113,7.384,1.582,9.948,4.396c2.563,2.814,3.972,6.324,4.252,10.515 M407.812,75.851
	c-3.521,5.739-5.326,12.358-5.417,19.869c0.176,12.317,3.859,21.828,11.041,28.562c7.176,6.712,16.8,10.119,28.847,10.21
	c8.372,0.045,15.905-1.878,22.6-5.76c6.698-3.886,11.243-10.011,13.631-18.397h-22.315c-1.191,2.672-3.023,4.672-5.497,6.008
	c-2.479,1.336-5.182,2.008-8.134,2.008c-5.082-0.067-9.014-1.588-11.79-4.554c-2.78-2.968-4.288-6.985-4.518-12.045h53.522
	c0.37-8.329-0.816-15.827-3.562-22.495c-2.744-6.656-6.996-11.953-12.769-15.868c-5.773-3.913-13.014-5.92-21.733-6.008
	c-7.258,0.054-13.839,1.715-19.747,4.974C416.058,65.606,411.332,70.109,407.812,75.851 M193.959,132.389l22.749-72.904h-24.297
	l-11.943,47.055h-0.277l-10.673-47.055h-22.764l-10.396,47.204h-0.28l-12.221-47.204H99.689l22.768,72.904h24.158l11.379-48.475
	h0.287l11.515,48.475H193.959z M245.128,88.426c0.74-4.495,2.436-8.093,5.099-10.778s6.12-4.062,10.367-4.133
	c4.072,0.113,7.385,1.582,9.946,4.396c2.555,2.814,3.975,6.324,4.252,10.515H245.128z M245.128,101.752h53.527
	c0.366-8.329-0.823-15.827-3.559-22.495c-2.747-6.656-7.003-11.953-12.771-15.868c-5.772-3.913-13.011-5.92-21.731-6.008
	c-7.253,0.054-13.838,1.715-19.749,4.974c-5.908,3.252-10.632,7.755-14.157,13.496c-3.522,5.739-5.335,12.358-5.423,19.869
	c0.181,12.317,3.859,21.828,11.043,28.562c7.181,6.712,16.795,10.119,28.844,10.21c8.371,0.045,15.911-1.878,22.603-5.76
	c6.698-3.886,11.241-10.011,13.641-18.397h-22.325c-1.187,2.672-3.017,4.672-5.5,6.008c-2.474,1.336-5.182,2.008-8.131,2.008
	c-5.083-0.067-9.017-1.588-11.79-4.554C246.866,110.829,245.37,106.812,245.128,101.752 M347.211,88.218h-37.847v13.596h37.847
	V88.218z M380.477,48.3H550.56V31.651H380.477V7.126h-23.868v24.525h-46.68V48.3h46.68v59.086
	c-0.208,9.733,1.508,16.494,5.146,20.277c3.634,3.777,10.436,5.588,20.406,5.421c2.18-0.019,4.355-0.118,6.536-0.298
	c2.171-0.181,4.355-0.316,6.535-0.397v-21.697c-1.061,0.009-2.103,0.054-3.146,0.143c-1.043,0.079-2.059,0.124-3.038,0.138
	c-2.636,0.061-4.708-0.384-6.233-1.354c-1.525-0.966-2.302-2.859-2.338-5.676V48.3z M539.222,86.167h23.182
	c-0.641-6.416-2.663-11.749-6.048-16.018c-3.391-4.265-7.7-7.458-12.918-9.589c-5.218-2.116-10.887-3.18-17.003-3.18
	c-11.849,0.203-21.146,3.934-27.89,11.176c-6.744,7.247-10.184,16.769-10.305,28.573c0.226,11.327,3.854,20.35,10.882,27.058
	c7.037,6.702,16.141,10.133,27.312,10.305c9.88-0.067,18.149-2.749,24.815-8.053c6.667-5.312,10.616-12.884,11.857-22.71h-23.187
	c-0.537,3.906-1.909,6.955-4.125,9.16c-2.208,2.193-5.376,3.312-9.501,3.35c-5.02-0.208-8.64-2.217-10.888-6.026
	c-2.238-3.803-3.34-8.165-3.3-13.083c-0.059-3.453,0.294-6.812,1.039-10.076c0.749-3.259,2.243-5.967,4.473-8.102
	c2.234-2.145,5.552-3.25,9.939-3.329c3.118,0.052,5.8,1.04,8.047,2.949C537.84,80.491,539.05,83.022,539.222,86.167"/>
<path fill="#62246C" d="M634.261,161.854h-6.387v36.863h6.387v-8.616l2.185-2.547l7.267,11.163h7.836l-10.688-14.954l9.339-10.327
	h-7.678l-6.134,8.147c-0.673,0.88-1.399,1.973-2.027,2.961h-0.099 M606.276,177.534c4.36,0,6.129,4.514,6.129,8.459
	c0,5.091-2.546,8.675-6.184,8.675c-3.891,0-6.273-3.692-6.273-8.567C599.948,181.895,601.763,177.534,606.276,177.534
	 M606.43,172.867c-7.633,0-13.08,5.077-13.08,13.388c0,8.097,5.502,13.03,12.665,13.03c6.445,0,12.981-4.157,12.981-13.446
	C618.996,178.157,613.958,172.867,606.43,172.867 M574.505,167.722v5.714h-3.634v4.767h3.634v11.898
	c0,3.321,0.618,5.605,1.972,7.059c1.192,1.3,3.169,2.076,5.498,2.076c2.031,0,3.688-0.262,4.631-0.623l-0.113-4.883
	c-0.563,0.162-1.398,0.315-2.486,0.315c-2.446,0-3.277-1.611-3.277-4.681v-11.162h6.076v-4.767h-6.076v-7.218L574.505,167.722z
	 M540.811,173.436l9.234,23.2c0.316,0.627,0.37,0.988,0.37,1.255c0,0.307-0.157,0.673-0.415,1.138
	c-0.889,1.706-2.284,3.223-3.484,3.994c-1.291,0.939-2.641,1.508-3.737,1.765l1.453,5.407c1.616-0.207,4.207-1.042,6.698-3.276
	c3.011-2.591,5.344-6.802,8.829-16.249l6.332-17.233h-6.847l-3.949,13.496c-0.475,1.661-0.935,3.529-1.354,4.983h-0.153
	c-0.356-1.454-0.89-3.372-1.399-4.934l-4.572-13.546H540.811z M516.612,184.179c0-0.623,0.104-1.192,0.212-1.662
	c0.723-2.807,3.061-4.676,5.651-4.676c4.266,0,6.392,3.639,6.392,8.106c0,5.087-2.441,8.306-6.437,8.306
	c-2.753,0-4.983-1.923-5.66-4.469c-0.1-0.465-0.158-0.984-0.158-1.508V184.179z M515.471,198.717l0.312-3.796h0.112
	c1.811,3.123,4.722,4.364,7.989,4.364c5.706,0,11.474-4.519,11.474-13.6c0.055-7.683-4.359-12.818-10.539-12.818
	c-3.791,0-6.545,1.606-8.102,4.044h-0.104v-15.058h-6.387v29.749c0,2.596-0.099,5.398-0.203,7.114H515.471z M491.277,162.477
	l-4.518,7.683h4.414l6.387-7.683H491.277z M493.615,189.838c0,0.415-0.054,0.931-0.203,1.399c-0.573,1.824-2.446,3.484-4.987,3.484
	c-2.031,0-3.634-1.15-3.634-3.638c0-3.846,4.302-4.829,8.824-4.73V189.838z M500.205,198.717c-0.262-1.558-0.36-3.796-0.36-6.075
	v-9.136c0-5.503-2.334-10.639-10.44-10.639c-3.99,0-7.267,1.083-9.131,2.221l1.241,4.161c1.715-1.092,4.311-1.868,6.802-1.868
	c4.469,0,5.141,2.753,5.141,4.409v0.416c-9.348-0.05-15.003,3.173-15.003,9.555c0,3.837,2.857,7.524,7.939,7.524
	c3.277,0,5.922-1.395,7.479-3.372h0.153l0.415,2.804H500.205z M446.886,198.717h6.441v-14.846c0-0.731,0.05-1.512,0.257-2.081
	c0.682-1.922,2.441-3.732,4.987-3.732c3.476,0,4.825,2.744,4.825,6.383v14.276h6.387v-15.004c0-7.993-4.567-10.846-8.982-10.846
	c-4.206,0-6.95,2.378-8.043,4.355H452.6l-0.315-3.787h-5.606c0.163,2.181,0.208,4.622,0.208,7.528V198.717z M414.654,162.477
	l-4.523,7.683h4.41l6.387-7.683H414.654z M399.903,173.436l9.239,23.2c0.316,0.627,0.365,0.988,0.365,1.255
	c0,0.307-0.157,0.673-0.415,1.138c-0.884,1.706-2.288,3.223-3.479,3.994c-1.3,0.939-2.646,1.508-3.732,1.765l1.448,5.407
	c1.611-0.207,4.211-1.042,6.698-3.276c3.011-2.591,5.349-6.802,8.824-16.249l6.337-17.233h-6.856l-3.939,13.496
	c-0.47,1.661-0.939,3.529-1.354,4.983h-0.153c-0.37-1.454-0.885-3.372-1.399-4.934l-4.577-13.546H399.903z M369.225,173.436
	l9.393,25.281h6.283l9.649-25.281h-6.743l-3.999,12.819c-0.673,2.288-1.245,4.256-1.715,6.332h-0.153
	c-0.461-2.076-0.984-4.103-1.711-6.332l-4.099-12.819H369.225z M350.895,177.534c4.359,0,6.129,4.514,6.129,8.459
	c0,5.091-2.545,8.675-6.184,8.675c-3.895,0-6.278-3.692-6.278-8.567C344.562,181.895,346.381,177.534,350.895,177.534
	 M351.048,172.867c-7.628,0-13.083,5.077-13.083,13.388c0,8.097,5.504,13.03,12.668,13.03c6.44,0,12.98-4.157,12.98-13.446
	C363.613,178.157,358.576,172.867,351.048,172.867 M319.116,167.722v5.714h-3.632v4.767h3.632v11.898
	c0,3.321,0.63,5.605,1.975,7.059c1.196,1.3,3.166,2.076,5.509,2.076c2.02,0,3.684-0.262,4.617-0.623l-0.102-4.883
	c-0.573,0.162-1.406,0.315-2.496,0.315c-2.439,0-3.272-1.611-3.272-4.681v-11.162h6.078v-4.767h-6.078v-7.218L319.116,167.722z
	 M285.424,173.436l9.244,23.2c0.309,0.627,0.358,0.988,0.358,1.255c0,0.307-0.151,0.673-0.415,1.138
	c-0.878,1.706-2.279,3.223-3.476,3.994c-1.3,0.939-2.649,1.508-3.739,1.765l1.451,5.407c1.613-0.207,4.211-1.042,6.698-3.276
	c3.013-2.591,5.355-6.802,8.826-16.249l6.342-17.233h-6.858l-3.943,13.496c-0.467,1.661-0.938,3.529-1.354,4.983H298.4
	c-0.358-1.454-0.878-3.372-1.395-4.934l-4.577-13.546H285.424z M261.23,184.179c0-0.623,0.102-1.192,0.208-1.662
	c0.727-2.807,3.064-4.676,5.662-4.676c4.257,0,6.378,3.639,6.378,8.106c0,5.087-2.436,8.306-6.432,8.306
	c-2.756,0-4.983-1.923-5.663-4.469c-0.101-0.465-0.153-0.984-0.153-1.508V184.179z M260.089,198.717l0.312-3.796h0.105
	c1.821,3.123,4.724,4.364,7.992,4.364c5.712,0,11.471-4.519,11.471-13.6c0.059-7.683-4.354-12.818-10.534-12.818
	c-3.79,0-6.543,1.606-8.103,4.044h-0.102v-15.058h-6.387v29.749c0,2.596-0.102,5.398-0.207,7.114H260.089z M222.605,162.477
	l-4.521,7.683h4.414l6.387-7.683H222.605z M207.861,173.436l9.239,23.2c0.313,0.627,0.366,0.988,0.366,1.255
	c0,0.307-0.158,0.673-0.422,1.138c-0.879,1.706-2.277,3.223-3.477,3.994c-1.293,0.939-2.646,1.508-3.739,1.765l1.463,5.407
	c1.603-0.207,4.2-1.042,6.691-3.276c3.013-2.591,5.353-6.802,8.829-16.249l6.332-17.233h-6.852l-3.947,13.496
	c-0.47,1.661-0.932,3.529-1.35,4.983h-0.156c-0.365-1.454-0.882-3.372-1.405-4.934l-4.565-13.546H207.861z M178.374,198.717h6.434
	v-14.846c0-0.731,0.05-1.512,0.258-2.081c0.679-1.922,2.441-3.732,4.983-3.732c3.484,0,4.834,2.744,4.834,6.383v14.276h6.384
	v-15.004c0-7.993-4.567-10.846-8.981-10.846c-4.205,0-6.956,2.378-8.051,4.355h-0.153l-0.31-3.787h-5.605
	c0.151,2.181,0.208,4.622,0.208,7.528V198.717z M156.252,198.717h6.387v-13.081c0-0.73,0.102-1.403,0.211-1.981
	c0.566-2.853,2.651-4.82,5.707-4.82c0.781,0,1.35,0.1,1.871,0.208v-6.021c-0.521-0.108-0.883-0.153-1.51-0.153
	c-2.695,0-5.653,1.81-6.901,5.389h-0.208l-0.207-4.82h-5.557c0.158,2.284,0.207,4.722,0.207,8.147V198.717z M130.342,183.401
	c0.264-2.6,1.928-6.179,5.87-6.179c4.257,0,5.297,3.837,5.245,6.179H130.342z M147.268,187.861c0.111-0.569,0.213-1.508,0.213-2.69
	c0-5.561-2.699-12.304-10.903-12.304c-8.097,0-12.36,6.59-12.36,13.595c0,7.736,4.832,12.773,13.04,12.773
	c3.631,0,6.642-0.672,8.821-1.553l-0.936-4.414c-1.924,0.718-4.045,1.138-7.008,1.138c-4.049,0-7.631-1.973-7.793-6.545H147.268z
	 M108.956,187.762c0,0.677-0.052,1.3-0.203,1.869c-0.63,2.753-2.907,4.518-5.504,4.518c-4.056,0-6.337-3.38-6.337-7.993
	c0-4.73,2.281-8.364,6.387-8.364c2.902,0,4.931,2.026,5.504,4.519c0.102,0.515,0.153,1.146,0.153,1.661V187.762z M108.956,161.854
	v14.331h-0.102c-1.142-1.873-3.634-3.317-7.113-3.317c-6.073,0-11.37,5.028-11.32,13.486c0,7.795,4.775,12.932,10.797,12.932
	c3.689,0,6.755-1.756,8.26-4.563h0.102l0.26,3.995h5.712c-0.106-1.716-0.208-4.519-0.208-7.114v-29.749H108.956z M70.437,177.534
	c4.358,0,6.123,4.514,6.123,8.459c0,5.091-2.541,8.675-6.179,8.675c-3.886,0-6.281-3.692-6.281-8.567
	C64.1,181.895,65.916,177.534,70.437,177.534 M70.588,172.867c-7.63,0-13.078,5.077-13.078,13.388c0,8.097,5.5,13.03,12.663,13.03
	c6.443,0,12.983-4.157,12.983-13.446C83.156,178.157,78.119,172.867,70.588,172.867 M11.455,198.717h6.23v-14.954
	c0-0.73,0.106-1.453,0.361-2.076c0.573-1.765,2.18-3.629,4.57-3.629c2.963,0,4.357,2.491,4.357,6.021v14.638h6.231v-15.161
	c0-0.731,0.158-1.508,0.309-2.131c0.679-1.814,2.289-3.367,4.471-3.367c3.065,0,4.521,2.491,4.521,6.698v13.961h6.224v-14.899
	c0-8.098-4.256-10.95-8.461-10.95c-2.076,0-3.689,0.515-5.084,1.498c-1.199,0.723-2.237,1.77-3.117,3.169h-0.106
	c-1.09-2.803-3.683-4.667-7.005-4.667c-4.263,0-6.54,2.329-7.788,4.302h-0.158l-0.259-3.733h-5.504
	c0.153,2.181,0.208,4.622,0.208,7.528V198.717z"/>
</svg>
